<?xml version="1.0" encoding="UTF-8" standalone="no"?>
<!DOCTYPE svg PUBLIC "-//W3C//DTD SVG 1.1//EN" "http://www.w3.org/Graphics/SVG/1.1/DTD/svg11.dtd">
<svg width="100%" height="100%" viewBox="0 0 74 44" version="1.1" xmlns="http://www.w3.org/2000/svg" xmlns:xlink="http://www.w3.org/1999/xlink" xml:space="preserve" xmlns:serif="http://www.serif.com/" style="fill-rule:evenodd;clip-rule:evenodd;stroke-miterlimit:10;">
    <g transform="matrix(0.102927,0,0,0.0918,1.880013,5.668574)">
        <g transform="matrix(1.10355,0,0,1.237296,209.843012,-100.662639)">
            <path d="M281.91,185.527L281.91,49.059L277.281,49.141L272.664,49.375L268.055,49.766L263.461,50.312L258.887,51.016L254.34,51.875L249.828,52.887L245.348,54.047L240.914,55.363L236.523,56.828L232.188,58.441L227.91,60.199L223.691,62.102L219.543,64.145L215.465,66.328L211.461,68.648L207.539,71.105L203.707,73.691L199.961,76.406L196.309,79.246L192.754,82.207L189.305,85.289L185.961,88.488L182.727,91.793L179.605,95.211L176.602,98.73L173.723,102.348L170.965,106.062L168.336,109.871L165.836,113.762L163.469,117.738L161.238,121.793L159.148,125.918L157.199,130.113L155.391,134.375L153.73,138.691L152.219,143.062L150.852,147.484L149.637,151.945L148.578,156.449L147.668,160.984L146.914,165.551L146.312,170.137L145.871,174.742L145.582,179.359L145.453,183.984L145.477,188.609L145.66,193.234L146,197.848L146.496,202.445L147.148,207.027L147.953,211.582L148.914,216.105L150.027,220.598L151.293,225.047L152.707,229.453L154.27,233.805L155.98,238.105L157.832,242.344L159.832,246.516L161.969,250.621L164.242,254.648L166.652,258.598L169.195,262.461L171.871,266.238L174.668,269.922L177.59,273.508L180.633,276.992L183.789,280.371L187.062,283.645L190.441,286.801L193.93,289.844L197.516,292.766L201.199,295.566L204.973,298.238L208.84,300.781L212.789,303.191L216.816,305.469L220.918,307.605L225.09,309.602L229.328,311.457L233.629,313.164L237.98,314.73L242.387,316.145L246.836,317.41L251.328,318.52L255.852,319.48L260.41,320.289L264.988,320.938L269.59,321.434L274.203,321.773L278.824,321.957L283.449,321.984L288.074,321.852L292.691,321.566L297.297,321.121L301.883,320.523L306.449,319.766L310.984,318.859L315.488,317.797L319.953,316.582L324.371,315.219L328.742,313.703L333.062,312.043L337.32,310.234L341.516,308.285L345.641,306.195L349.695,303.965L353.672,301.598L357.566,299.102L361.371,296.469L365.086,293.715L368.703,290.832L372.223,287.828L375.641,284.711L378.949,281.477L382.145,278.133L385.227,274.68L388.188,271.125L391.027,267.477L393.742,263.73L396.332,259.895L398.785,255.973L401.105,251.969L403.289,247.891L405.332,243.742L407.234,239.523L408.996,235.246L410.605,230.91L412.07,226.52L413.387,222.086L414.551,217.609L415.562,213.094L416.418,208.547L417.121,203.977L417.668,199.383L418.062,194.773L418.297,190.152L418.375,185.527L281.91,185.527Z" style="fill:rgb(165,195,241);fill-rule:nonzero;stroke:white;stroke-width:1.07px;"/>
        </g>
        <g transform="matrix(1.10355,0,0,1.237296,209.843012,-100.662639)">
            <path d="M281.91,185.527L418.375,185.527L418.293,180.867L418.055,176.215L417.66,171.57L417.102,166.945L416.391,162.34L415.52,157.762L414.496,153.215L413.312,148.707L411.98,144.242L410.496,139.828L408.859,135.465L407.078,131.156L405.148,126.918L403.074,122.742L400.859,118.645L398.508,114.621L396.02,110.68L393.398,106.828L390.645,103.07L387.766,99.402L384.766,95.84L381.645,92.383L378.406,89.031L375.078,92.359L371.75,95.684L361.766,105.668L358.441,108.996L355.113,112.324L351.785,115.648L341.801,125.633L338.477,128.961L335.148,132.285L321.836,145.598L318.512,148.926L315.184,152.25L305.199,162.234L301.875,165.562L298.547,168.891L295.219,172.215L285.234,182.199L281.91,185.527Z" style="fill:rgb(224,137,137);fill-rule:nonzero;stroke:white;stroke-width:1.07px;"/>
        </g>
        <g transform="matrix(1.10355,0,0,1.237296,209.843012,-100.662639)">
            <path d="M281.91,185.527L285.234,182.199L295.219,172.215L298.547,168.891L301.875,165.562L305.199,162.234L315.184,152.25L318.512,148.926L321.836,145.598L335.148,132.285L338.477,128.961L341.801,125.633L351.785,115.648L355.113,112.324L358.441,108.996L361.766,105.668L371.75,95.684L375.078,92.359L378.406,89.031L375.055,85.793L371.594,82.672L368.031,79.668L364.367,76.789L360.605,74.039L356.754,71.414L352.812,68.926L348.793,66.574L344.691,64.359L340.52,62.289L336.277,60.359L331.973,58.574L327.609,56.941L323.191,55.453L318.727,54.121L314.219,52.941L309.672,51.914L305.094,51.043L300.492,50.332L295.863,49.777L291.223,49.379L286.566,49.141L281.91,49.059L281.91,185.527Z" style="fill:rgb(239,205,140);fill-rule:nonzero;stroke:white;stroke-width:1.07px;"/>
        </g>
    </g>
    <g transform="matrix(0.107338,0,0,0.095734,2.02507,2.809752)">
        <g>
            <g id="svg_16" transform="matrix(1,0,0,1,-66,74)">
                <rect x="76.945" y="225.504" width="120.426" height="97.934" style="fill:rgb(165,195,241);fill-rule:nonzero;stroke:white;stroke-width:0.49px;stroke-linejoin:round;stroke-miterlimit:2;"/>
            </g>
            <g id="svg_17" transform="matrix(1,0,0,1,-66,74)">
                <rect x="210.75" y="127.57" width="120.426" height="195.867" style="fill:rgb(135,194,139);fill-rule:nonzero;stroke:white;stroke-width:0.49px;stroke-linejoin:round;stroke-miterlimit:2;"/>
            </g>
            <g id="svg_18" transform="matrix(1,0,0,1,-66,74)">
                <rect x="344.559" y="29.633" width="120.426" height="293.805" style="fill:rgb(224,137,137);fill-rule:nonzero;stroke:white;stroke-width:0.98px;stroke-linejoin:round;stroke-miterlimit:2;"/>
            </g>
        </g>
    </g>
</svg>
